<svg xmlns="http://www.w3.org/2000/svg" xmlns:xlink="http://www.w3.org/1999/xlink" width="120" height="60"><g transform="translate(4.527 13.01) scale(.10275)"><defs><path id="a" d="M4.6 3.7h1095.6V327H4.6z"/></defs><clipPath id="b"><use height="100%" width="100%" overflow="visible" xlink:href="#a"/></clipPath><path d="M166.9 314.5c-81.8 0-148.1-66.3-148.1-148.1C18.7 84.5 85 18.2 166.9 18.2c81.8 0 148.1 66.3 148.1 148.1s-66.3 148.2-148.1 148.2zm-.1-310.8C77.3 3.7 4.5 76.2 4.5 165.3 4.5 254.5 77.3 327 166.8 327c89.5 0 162.4-72.5 162.4-161.6 0-89.2-72.8-161.7-162.4-161.7z" clip-path="url(#b)" fill="#00a1df"/></g><path d="M17.443 37.454c-2.518-1.181-4.264-3.853-4.264-6.945a7.8 7.8 0 011.315-4.377l5.486 8.178h3.32l5.486-8.178a7.823 7.823 0 011.315 4.377c0 2.887-1.52 5.394-3.76 6.688l1.058 4.049a12.476 12.476 0 006.77-11.107c0-4.572-2.455-8.559-6.113-10.737l-6.37 9.833-6.309-9.874c-3.699 2.168-6.185 6.185-6.185 10.778 0 5.014 2.949 9.34 7.213 11.322zm39.639-14.456h-2.127l-4.017 8.733-4.1-8.733h-2.137v14.035h2.137v-9.38l3.309 6.842h1.582l3.226-6.843v9.381h2.127zm8.004 10.131c0 1.54-.945 2.23-2.065 2.23s-2.014-.669-2.014-2.23v-6.093h-2.014v6.39c0 1.13.236 2.076 1.007 2.826.596.565 1.438.904 2.466.904 1.007 0 1.973-.37 2.661-1.12v1.007H67.1v-9.997h-2.014zm5.949 1.027V22.998H69.02v11.271c0 1.48.832 2.764 2.743 2.764h1.244v-1.716h-.884c-.812 0-1.09-.39-1.09-1.16zm4.562-2.938c.02-.607.062-.905.257-1.357.318-.75 1.048-1.263 1.993-1.263.945 0 1.654.513 1.973 1.263.195.452.257.75.277 1.357zm2.25-4.295c-2.558 0-4.233 1.87-4.233 5.106 0 3.802 1.993 5.127 4.5 5.127 1.757 0 2.723-.534 3.74-1.561l-1.295-1.203c-.708.71-1.304 1.028-2.424 1.028-1.634 0-2.548-1.079-2.548-2.795h6.483v-.883c.01-2.847-1.541-4.82-4.223-4.82zm14.158 3.226c-.596-.534-1.325-.853-2.62-1.048l-1.592-.236c-.647-.103-1.223-.34-1.572-.648-.37-.339-.534-.79-.534-1.305 0-1.243.904-2.188 2.558-2.188 1.181 0 2.188.257 3.051 1.079l1.357-1.336c-1.202-1.11-2.497-1.592-4.357-1.592-2.918 0-4.695 1.674-4.695 4.12 0 1.14.339 2.034 1.027 2.681.606.576 1.52.966 2.661 1.12l1.655.237c.832.113 1.181.256 1.54.596.37.328.556.852.556 1.459 0 1.356-1.069 2.147-2.898 2.147-1.438 0-2.558-.319-3.586-1.336l-1.418 1.398c1.336 1.356 2.857 1.849 4.973 1.849 2.939 0 5.045-1.541 5.045-4.12-.01-1.192-.38-2.199-1.15-2.877zm7.932 4.624c-.37.37-.883.585-1.48.585a2.008 2.008 0 01-1.458-.585c-.617-.607-.689-1.655-.689-2.744 0-1.089.083-2.127.689-2.743.37-.37.863-.575 1.459-.575.586 0 1.1.195 1.48.575.606.606.688 1.654.688 2.743 0 1.08-.082 2.127-.689 2.744zm-1.48-7.85c-1.355 0-2.321.513-2.979 1.181-.945.987-1.181 2.25-1.181 3.925 0 1.696.236 2.96 1.181 3.946.648.668 1.613 1.181 2.98 1.181 1.356 0 2.342-.513 3-1.181.945-.987 1.182-2.25 1.182-3.946 0-1.675-.237-2.938-1.182-3.925-.658-.668-1.644-1.181-3-1.181zm6.207-1.243v1.54h-1.14v1.542h1.14v8.281h2.014v-8.281h1.993V27.22h-1.993v-1.439c0-.73.349-1.16 1.099-1.16h.884v-1.727h-1.264c-1.86 0-2.733 1.346-2.733 2.785zm8.404-1.5h-2.013v3.03h-1.14v1.542h1.14v5.497c0 1.438.863 2.784 2.743 2.784H115v-1.716h-.832c-.75 0-1.1-.431-1.1-1.16v-5.405H115V27.21h-1.932z" fill="#00a1df"/></svg>